<svg width="1024" height="753" viewBox="0 0 1024 753" fill="none" xmlns="http://www.w3.org/2000/svg">
<g clip-path="url(#clip0_122_130)">
<rect width="1024" height="753" fill="#121214"/>
<g opacity="0.2" filter="url(#filter0_f_122_130)">
<ellipse cx="511.5" cy="51" rx="670.5" ry="350" fill="#338AF3"/>
</g>
<path d="M32.0349 287C33.5302 287 34.6622 287.63 35.4308 288.891C36.2134 290.138 36.6047 291.953 36.6047 294.336C36.6047 296.719 36.2134 298.541 35.4308 299.802C34.6622 301.063 33.5302 301.693 32.0349 301.693C30.5536 301.693 29.4216 301.063 28.639 299.802C27.8564 298.541 27.4651 296.719 27.4651 294.336C27.4651 291.967 27.8564 290.152 28.639 288.891C29.4216 287.63 30.5536 287 32.0349 287ZM28.9534 294.336C28.9534 296.026 29.1072 297.35 29.4146 298.306L34.0683 289.099C33.5791 288.448 32.9013 288.122 32.0349 288.122C31.0706 288.122 30.316 288.635 29.771 289.66C29.2259 290.672 28.9534 292.23 28.9534 294.336ZM32.0349 300.55C33.0131 300.55 33.7748 300.044 34.3198 299.033C34.8648 298.008 35.1373 296.442 35.1373 294.336C35.1373 292.549 34.9627 291.163 34.6133 290.18L29.9596 299.469C30.4627 300.19 31.1545 300.55 32.0349 300.55Z" fill="url(#paint0_linear_122_130)" fill-opacity="0.6"/>
<path d="M33.2926 324.135H36.3741V325.236H28.3874V324.135H31.9511V312.455L28.5551 314.471L27.9682 313.536L32.1607 310.959H33.2926V324.135Z" fill="url(#paint1_linear_122_130)" fill-opacity="0.6"/>
<path d="M32.0349 334.502C33.5302 334.502 34.6622 335.133 35.4308 336.393C36.2134 337.64 36.6047 339.455 36.6047 341.838C36.6047 344.221 36.2134 346.043 35.4308 347.304C34.6622 348.565 33.5302 349.195 32.0349 349.195C30.5536 349.195 29.4216 348.565 28.639 347.304C27.8564 346.043 27.4651 344.221 27.4651 341.838C27.4651 339.469 27.8564 337.654 28.639 336.393C29.4216 335.133 30.5536 334.502 32.0349 334.502ZM28.9534 341.838C28.9534 343.529 29.1072 344.852 29.4146 345.808L34.0683 336.601C33.5791 335.95 32.9013 335.624 32.0349 335.624C31.0706 335.624 30.316 336.137 29.771 337.162C29.2259 338.174 28.9534 339.732 28.9534 341.838ZM32.0349 348.052C33.0131 348.052 33.7748 347.546 34.3198 346.535C34.8648 345.51 35.1373 343.944 35.1373 341.838C35.1373 340.051 34.9627 338.665 34.6133 337.682L29.9596 346.971C30.4627 347.692 31.1545 348.052 32.0349 348.052Z" fill="url(#paint2_linear_122_130)" fill-opacity="0.6"/>
<path d="M33.2926 371.637H36.3741V372.738H28.3874V371.637H31.9511V359.957L28.5551 361.973L27.9682 361.038L32.1607 358.461H33.2926V371.637Z" fill="url(#paint3_linear_122_130)" fill-opacity="0.6"/>
<path d="M33.2926 395.388H36.3741V396.489H28.3874V395.388H31.9511V383.708L28.5551 385.724L27.9682 384.789L32.1607 382.212H33.2926V395.388Z" fill="url(#paint4_linear_122_130)" fill-opacity="0.6"/>
<path d="M32.0349 405.755C33.5302 405.755 34.6622 406.386 35.4308 407.646C36.2134 408.893 36.6047 410.708 36.6047 413.091C36.6047 415.474 36.2134 417.296 35.4308 418.557C34.6622 419.818 33.5302 420.448 32.0349 420.448C30.5536 420.448 29.4216 419.818 28.639 418.557C27.8564 417.296 27.4651 415.474 27.4651 413.091C27.4651 410.722 27.8564 408.907 28.639 407.646C29.4216 406.386 30.5536 405.755 32.0349 405.755ZM28.9534 413.091C28.9534 414.782 29.1072 416.105 29.4146 417.061L34.0683 407.854C33.5791 407.203 32.9013 406.878 32.0349 406.878C31.0706 406.878 30.316 407.39 29.771 408.415C29.2259 409.427 28.9534 410.985 28.9534 413.091ZM32.0349 419.305C33.0131 419.305 33.7748 418.8 34.3198 417.788C34.8648 416.763 35.1373 415.197 35.1373 413.091C35.1373 411.304 34.9627 409.919 34.6133 408.935L29.9596 418.225C30.4627 418.945 31.1545 419.305 32.0349 419.305Z" fill="url(#paint5_linear_122_130)" fill-opacity="0.6"/>
<path d="M33.2926 442.89H36.3741V443.992H28.3874V442.89H31.9511V431.21L28.5551 433.226L27.9682 432.291L32.1607 429.714H33.2926V442.89Z" fill="url(#paint6_linear_122_130)" fill-opacity="0.6"/>
<path d="M32.0349 453.257C33.5302 453.257 34.6622 453.888 35.4308 455.149C36.2134 456.396 36.6047 458.211 36.6047 460.594C36.6047 462.977 36.2134 464.798 35.4308 466.059C34.6622 467.32 33.5302 467.95 32.0349 467.95C30.5536 467.95 29.4216 467.32 28.639 466.059C27.8564 464.798 27.4651 462.977 27.4651 460.594C27.4651 458.224 27.8564 456.409 28.639 455.149C29.4216 453.888 30.5536 453.257 32.0349 453.257ZM28.9534 460.594C28.9534 462.284 29.1072 463.607 29.4146 464.563L34.0683 455.356C33.5791 454.705 32.9013 454.38 32.0349 454.38C31.0706 454.38 30.316 454.892 29.771 455.918C29.2259 456.929 28.9534 458.488 28.9534 460.594ZM32.0349 466.807C33.0131 466.807 33.7748 466.302 34.3198 465.29C34.8648 464.265 35.1373 462.699 35.1373 460.594C35.1373 458.806 34.9627 457.421 34.6133 456.437L29.9596 465.727C30.4627 466.447 31.1545 466.807 32.0349 466.807Z" fill="url(#paint7_linear_122_130)" fill-opacity="0.6"/>
<path d="M32.0349 477.008C33.5302 477.008 34.6622 477.639 35.4308 478.9C36.2134 480.147 36.6047 481.962 36.6047 484.345C36.6047 486.728 36.2134 488.549 35.4308 489.81C34.6622 491.071 33.5302 491.701 32.0349 491.701C30.5536 491.701 29.4216 491.071 28.639 489.81C27.8564 488.549 27.4651 486.728 27.4651 484.345C27.4651 481.975 27.8564 480.16 28.639 478.9C29.4216 477.639 30.5536 477.008 32.0349 477.008ZM28.9534 484.345C28.9534 486.035 29.1072 487.358 29.4146 488.314L34.0683 479.107C33.5791 478.456 32.9013 478.131 32.0349 478.131C31.0706 478.131 30.316 478.643 29.771 479.669C29.2259 480.68 28.9534 482.239 28.9534 484.345ZM32.0349 490.558C33.0131 490.558 33.7748 490.053 34.3198 489.041C34.8648 488.016 35.1373 486.451 35.1373 484.345C35.1373 482.557 34.9627 481.172 34.6133 480.188L29.9596 489.478C30.4627 490.198 31.1545 490.558 32.0349 490.558Z" fill="url(#paint8_linear_122_130)" fill-opacity="0.6"/>
<path d="M33.2926 514.143H36.3741V515.245H28.3874V514.143H31.9511V502.464L28.5551 504.48L27.9682 503.544L32.1607 500.967H33.2926V514.143Z" fill="url(#paint9_linear_122_130)" fill-opacity="0.6"/>
<path d="M32.0349 524.511C33.5302 524.511 34.6622 525.141 35.4308 526.402C36.2134 527.649 36.6047 529.464 36.6047 531.847C36.6047 534.23 36.2134 536.052 35.4308 537.312C34.6622 538.573 33.5302 539.204 32.0349 539.204C30.5536 539.204 29.4216 538.573 28.639 537.312C27.8564 536.052 27.4651 534.23 27.4651 531.847C27.4651 529.478 27.8564 527.663 28.639 526.402C29.4216 525.141 30.5536 524.511 32.0349 524.511ZM28.9534 531.847C28.9534 533.537 29.1072 534.86 29.4146 535.816L34.0683 526.61C33.5791 525.958 32.9013 525.633 32.0349 525.633C31.0706 525.633 30.316 526.145 29.771 527.171C29.2259 528.182 28.9534 529.741 28.9534 531.847ZM32.0349 538.061C33.0131 538.061 33.7748 537.555 34.3198 536.543C34.8648 535.518 35.1373 533.953 35.1373 531.847C35.1373 530.059 34.9627 528.674 34.6133 527.69L29.9596 536.98C30.4627 537.7 31.1545 538.061 32.0349 538.061Z" fill="url(#paint10_linear_122_130)" fill-opacity="0.6"/>
<path d="M33.2926 561.645H36.3741V562.747H28.3874V561.645H31.9511V549.966L28.5551 551.982L27.9682 551.046L32.1607 548.469H33.2926V561.645Z" fill="url(#paint11_linear_122_130)" fill-opacity="0.6"/>
<path d="M33.2926 585.396H36.3741V586.498H28.3874V585.396H31.9511V573.717L28.5551 575.733L27.9682 574.798L32.1607 572.221H33.2926V585.396Z" fill="url(#paint12_linear_122_130)" fill-opacity="0.6"/>
<path d="M70.9651 334.502C72.4604 334.502 73.5924 335.133 74.361 336.393C75.1436 337.64 75.5349 339.455 75.5349 341.838C75.5349 344.221 75.1436 346.043 74.361 347.304C73.5924 348.565 72.4604 349.195 70.9651 349.195C69.4838 349.195 68.3518 348.565 67.5692 347.304C66.7866 346.043 66.3953 344.221 66.3953 341.838C66.3953 339.469 66.7866 337.654 67.5692 336.393C68.3518 335.133 69.4838 334.502 70.9651 334.502ZM67.8836 341.838C67.8836 343.529 68.0374 344.852 68.3448 345.808L72.9985 336.601C72.5093 335.95 71.8315 335.624 70.9651 335.624C70.0008 335.624 69.2462 336.137 68.7012 337.162C68.1561 338.174 67.8836 339.732 67.8836 341.838ZM70.9651 348.052C71.9433 348.052 72.705 347.546 73.25 346.535C73.795 345.51 74.0675 343.944 74.0675 341.838C74.0675 340.051 73.8928 338.665 73.5435 337.682L68.8898 346.971C69.3929 347.692 70.0847 348.052 70.9651 348.052Z" fill="url(#paint13_linear_122_130)" fill-opacity="0.6"/>
<path d="M72.2228 371.637H75.3043V372.738H67.3176V371.637H70.8812V359.957L67.4853 361.973L66.8984 361.038L71.0909 358.461H72.2228V371.637Z" fill="url(#paint14_linear_122_130)" fill-opacity="0.6"/>
<path d="M70.9651 382.004C72.4604 382.004 73.5924 382.635 74.361 383.895C75.1436 385.142 75.5349 386.957 75.5349 389.34C75.5349 391.723 75.1436 393.545 74.361 394.806C73.5924 396.067 72.4604 396.697 70.9651 396.697C69.4838 396.697 68.3518 396.067 67.5692 394.806C66.7866 393.545 66.3953 391.723 66.3953 389.34C66.3953 386.971 66.7866 385.156 67.5692 383.895C68.3518 382.635 69.4838 382.004 70.9651 382.004ZM67.8836 389.34C67.8836 391.031 68.0374 392.354 68.3448 393.31L72.9985 384.103C72.5093 383.452 71.8315 383.126 70.9651 383.126C70.0008 383.126 69.2462 383.639 68.7012 384.664C68.1561 385.676 67.8836 387.234 67.8836 389.34ZM70.9651 395.554C71.9433 395.554 72.705 395.049 73.25 394.037C73.795 393.012 74.0675 391.446 74.0675 389.34C74.0675 387.553 73.8928 386.168 73.5435 385.184L68.8898 394.474C69.3929 395.194 70.0847 395.554 70.9651 395.554Z" fill="url(#paint15_linear_122_130)" fill-opacity="0.6"/>
<path d="M70.9651 405.755C72.4604 405.755 73.5924 406.386 74.361 407.646C75.1436 408.893 75.5349 410.708 75.5349 413.091C75.5349 415.474 75.1436 417.296 74.361 418.557C73.5924 419.818 72.4604 420.448 70.9651 420.448C69.4838 420.448 68.3518 419.818 67.5692 418.557C66.7866 417.296 66.3953 415.474 66.3953 413.091C66.3953 410.722 66.7866 408.907 67.5692 407.646C68.3518 406.386 69.4838 405.755 70.9651 405.755ZM67.8836 413.091C67.8836 414.782 68.0374 416.105 68.3448 417.061L72.9985 407.854C72.5093 407.203 71.8315 406.878 70.9651 406.878C70.0008 406.878 69.2462 407.39 68.7012 408.415C68.1561 409.427 67.8836 410.985 67.8836 413.091ZM70.9651 419.305C71.9433 419.305 72.705 418.8 73.25 417.788C73.795 416.763 74.0675 415.197 74.0675 413.091C74.0675 411.304 73.8928 409.919 73.5435 408.935L68.8898 418.225C69.3929 418.945 70.0847 419.305 70.9651 419.305Z" fill="url(#paint16_linear_122_130)" fill-opacity="0.6"/>
<path d="M72.2228 442.89H75.3043V443.992H67.3176V442.89H70.8812V431.21L67.4853 433.226L66.8984 432.291L71.0909 429.714H72.2228V442.89Z" fill="url(#paint17_linear_122_130)" fill-opacity="0.6"/>
<path d="M70.9651 453.257C72.4604 453.257 73.5924 453.888 74.361 455.149C75.1436 456.396 75.5349 458.211 75.5349 460.594C75.5349 462.977 75.1436 464.798 74.361 466.059C73.5924 467.32 72.4604 467.95 70.9651 467.95C69.4838 467.95 68.3518 467.32 67.5692 466.059C66.7866 464.798 66.3953 462.977 66.3953 460.594C66.3953 458.224 66.7866 456.409 67.5692 455.149C68.3518 453.888 69.4838 453.257 70.9651 453.257ZM67.8836 460.594C67.8836 462.284 68.0374 463.607 68.3448 464.563L72.9985 455.356C72.5093 454.705 71.8315 454.38 70.9651 454.38C70.0008 454.38 69.2462 454.892 68.7012 455.918C68.1561 456.929 67.8836 458.488 67.8836 460.594ZM70.9651 466.807C71.9433 466.807 72.705 466.302 73.25 465.29C73.795 464.265 74.0675 462.699 74.0675 460.594C74.0675 458.806 73.8928 457.421 73.5435 456.437L68.8898 465.727C69.3929 466.447 70.0847 466.807 70.9651 466.807Z" fill="url(#paint18_linear_122_130)" fill-opacity="0.6"/>
<path d="M72.2228 490.392H75.3043V491.494H67.3176V490.392H70.8812V478.713L67.4853 480.728L66.8984 479.793L71.0909 477.216H72.2228V490.392Z" fill="url(#paint19_linear_122_130)" fill-opacity="0.6"/>
<path d="M70.9651 500.76C72.4604 500.76 73.5924 501.39 74.361 502.651C75.1436 503.898 75.5349 505.713 75.5349 508.096C75.5349 510.479 75.1436 512.301 74.361 513.561C73.5924 514.822 72.4604 515.453 70.9651 515.453C69.4838 515.453 68.3518 514.822 67.5692 513.561C66.7866 512.301 66.3953 510.479 66.3953 508.096C66.3953 505.726 66.7866 503.911 67.5692 502.651C68.3518 501.39 69.4838 500.76 70.9651 500.76ZM67.8836 508.096C67.8836 509.786 68.0374 511.109 68.3448 512.065L72.9985 502.859C72.5093 502.207 71.8315 501.882 70.9651 501.882C70.0008 501.882 69.2462 502.394 68.7012 503.42C68.1561 504.431 67.8836 505.99 67.8836 508.096ZM70.9651 514.31C71.9433 514.31 72.705 513.804 73.25 512.792C73.795 511.767 74.0675 510.202 74.0675 508.096C74.0675 506.308 73.8928 504.923 73.5435 503.939L68.8898 513.229C69.3929 513.949 70.0847 514.31 70.9651 514.31Z" fill="url(#paint20_linear_122_130)" fill-opacity="0.6"/>
<path d="M70.9651 524.511C72.4604 524.511 73.5924 525.141 74.361 526.402C75.1436 527.649 75.5349 529.464 75.5349 531.847C75.5349 534.23 75.1436 536.052 74.361 537.312C73.5924 538.573 72.4604 539.204 70.9651 539.204C69.4838 539.204 68.3518 538.573 67.5692 537.312C66.7866 536.052 66.3953 534.23 66.3953 531.847C66.3953 529.478 66.7866 527.663 67.5692 526.402C68.3518 525.141 69.4838 524.511 70.9651 524.511ZM67.8836 531.847C67.8836 533.537 68.0374 534.86 68.3448 535.816L72.9985 526.61C72.5093 525.958 71.8315 525.633 70.9651 525.633C70.0008 525.633 69.2462 526.145 68.7012 527.171C68.1561 528.182 67.8836 529.741 67.8836 531.847ZM70.9651 538.061C71.9433 538.061 72.705 537.555 73.25 536.543C73.795 535.518 74.0675 533.953 74.0675 531.847C74.0675 530.059 73.8928 528.674 73.5435 527.69L68.8898 536.98C69.3929 537.7 70.0847 538.061 70.9651 538.061Z" fill="url(#paint21_linear_122_130)" fill-opacity="0.6"/>
<path d="M72.2228 561.645H75.3043V562.747H67.3176V561.645H70.8812V549.966L67.4853 551.982L66.8984 551.046L71.0909 548.469H72.2228V561.645Z" fill="url(#paint22_linear_122_130)" fill-opacity="0.6"/>
<path d="M70.9651 572.013C72.4604 572.013 73.5924 572.643 74.361 573.904C75.1436 575.151 75.5349 576.966 75.5349 579.349C75.5349 581.732 75.1436 583.554 74.361 584.815C73.5924 586.075 72.4604 586.706 70.9651 586.706C69.4838 586.706 68.3518 586.075 67.5692 584.815C66.7866 583.554 66.3953 581.732 66.3953 579.349C66.3953 576.98 66.7866 575.165 67.5692 573.904C68.3518 572.643 69.4838 572.013 70.9651 572.013ZM67.8836 579.349C67.8836 581.039 68.0374 582.362 68.3448 583.318L72.9985 574.112C72.5093 573.461 71.8315 573.135 70.9651 573.135C70.0008 573.135 69.2462 573.648 68.7012 574.673C68.1561 575.684 67.8836 577.243 67.8836 579.349ZM70.9651 585.563C71.9433 585.563 72.705 585.057 73.25 584.046C73.795 583.02 74.0675 581.455 74.0675 579.349C74.0675 577.562 73.8928 576.176 73.5435 575.192L68.8898 584.482C69.3929 585.202 70.0847 585.563 70.9651 585.563Z" fill="url(#paint23_linear_122_130)" fill-opacity="0.6"/>
<path d="M72.2228 609.148H75.3043V610.249H67.3176V609.148H70.8812V597.468L67.4853 599.484L66.8984 598.549L71.0909 595.972H72.2228V609.148Z" fill="url(#paint24_linear_122_130)" fill-opacity="0.6"/>
<path d="M72.2228 632.899H75.3043V634H67.3176V632.899H70.8812V621.219L67.4853 623.235L66.8984 622.3L71.0909 619.723H72.2228V632.899Z" fill="url(#paint25_linear_122_130)" fill-opacity="0.6"/>
<path d="M12.5698 358.253C14.0651 358.253 15.1971 358.884 15.9657 360.144C16.7483 361.391 17.1396 363.206 17.1396 365.589C17.1396 367.972 16.7483 369.794 15.9657 371.055C15.1971 372.316 14.0651 372.946 12.5698 372.946C11.0885 372.946 9.95649 372.316 9.1739 371.055C8.3913 369.794 8 367.972 8 365.589C8 363.22 8.3913 361.405 9.1739 360.144C9.95649 358.884 11.0885 358.253 12.5698 358.253ZM9.48833 365.589C9.48833 367.28 9.64206 368.603 9.9495 369.559L14.6032 360.352C14.114 359.701 13.4363 359.375 12.5698 359.375C11.6055 359.375 10.8509 359.888 10.3059 360.913C9.76084 361.925 9.48833 363.483 9.48833 365.589ZM12.5698 371.803C13.5481 371.803 14.3097 371.297 14.8547 370.286C15.3997 369.261 15.6722 367.695 15.6722 365.589C15.6722 363.802 15.4976 362.417 15.1482 361.433L10.4945 370.722C10.9976 371.443 11.6894 371.803 12.5698 371.803Z" fill="url(#paint26_linear_122_130)" fill-opacity="0.6"/>
<path d="M12.5698 382.004C14.0651 382.004 15.1971 382.635 15.9657 383.895C16.7483 385.142 17.1396 386.957 17.1396 389.34C17.1396 391.723 16.7483 393.545 15.9657 394.806C15.1971 396.067 14.0651 396.697 12.5698 396.697C11.0885 396.697 9.95649 396.067 9.1739 394.806C8.3913 393.545 8 391.723 8 389.34C8 386.971 8.3913 385.156 9.1739 383.895C9.95649 382.635 11.0885 382.004 12.5698 382.004ZM9.48833 389.34C9.48833 391.031 9.64206 392.354 9.9495 393.31L14.6032 384.103C14.114 383.452 13.4363 383.126 12.5698 383.126C11.6055 383.126 10.8509 383.639 10.3059 384.664C9.76084 385.676 9.48833 387.234 9.48833 389.34ZM12.5698 395.554C13.5481 395.554 14.3097 395.049 14.8547 394.037C15.3997 393.012 15.6722 391.446 15.6722 389.34C15.6722 387.553 15.4976 386.168 15.1482 385.184L10.4945 394.474C10.9976 395.194 11.6894 395.554 12.5698 395.554Z" fill="url(#paint27_linear_122_130)" fill-opacity="0.6"/>
<path d="M13.8276 419.139H16.909V420.24H8.92235V419.139H12.486V407.459L9.09005 409.475L8.5031 408.54L12.6956 405.963H13.8276V419.139Z" fill="url(#paint28_linear_122_130)" fill-opacity="0.6"/>
<path d="M12.5698 429.506C14.0651 429.506 15.1971 430.137 15.9657 431.398C16.7483 432.644 17.1396 434.459 17.1396 436.842C17.1396 439.225 16.7483 441.047 15.9657 442.308C15.1971 443.569 14.0651 444.199 12.5698 444.199C11.0885 444.199 9.95649 443.569 9.1739 442.308C8.3913 441.047 8 439.225 8 436.842C8 434.473 8.3913 432.658 9.1739 431.398C9.95649 430.137 11.0885 429.506 12.5698 429.506ZM9.48833 436.842C9.48833 438.533 9.64206 439.856 9.9495 440.812L14.6032 431.605C14.114 430.954 13.4363 430.629 12.5698 430.629C11.6055 430.629 10.8509 431.141 10.3059 432.166C9.76084 433.178 9.48833 434.737 9.48833 436.842ZM12.5698 443.056C13.5481 443.056 14.3097 442.551 14.8547 441.539C15.3997 440.514 15.6722 438.948 15.6722 436.842C15.6722 435.055 15.4976 433.67 15.1482 432.686L10.4945 441.976C10.9976 442.696 11.6894 443.056 12.5698 443.056Z" fill="url(#paint29_linear_122_130)" fill-opacity="0.6"/>
<path d="M13.8276 466.641H16.909V467.743H8.92235V466.641H12.486V454.962L9.09005 456.977L8.5031 456.042L12.6956 453.465H13.8276V466.641Z" fill="url(#paint30_linear_122_130)" fill-opacity="0.6"/>
<path d="M13.8276 490.392H16.909V491.494H8.92235V490.392H12.486V478.713L9.09005 480.728L8.5031 479.793L12.6956 477.216H13.8276V490.392Z" fill="url(#paint31_linear_122_130)" fill-opacity="0.6"/>
<path d="M52.7577 324.135H55.8392V325.236H47.8525V324.135H51.4162V312.455L48.0202 314.471L47.4333 313.536L51.6258 310.959H52.7577V324.135Z" fill="url(#paint32_linear_122_130)" fill-opacity="0.6"/>
<path d="M51.5 334.502C52.9953 334.502 54.1273 335.133 54.8959 336.393C55.6785 337.64 56.0698 339.455 56.0698 341.838C56.0698 344.221 55.6785 346.043 54.8959 347.304C54.1273 348.565 52.9953 349.195 51.5 349.195C50.0187 349.195 48.8867 348.565 48.1041 347.304C47.3215 346.043 46.9302 344.221 46.9302 341.838C46.9302 339.469 47.3215 337.654 48.1041 336.393C48.8867 335.133 50.0187 334.502 51.5 334.502ZM48.4185 341.838C48.4185 343.529 48.5723 344.852 48.8797 345.808L53.5334 336.601C53.0442 335.95 52.3664 335.624 51.5 335.624C50.5357 335.624 49.7811 336.137 49.2361 337.162C48.691 338.174 48.4185 339.732 48.4185 341.838ZM51.5 348.052C52.4782 348.052 53.2399 347.546 53.7849 346.535C54.3299 345.51 54.6024 343.944 54.6024 341.838C54.6024 340.051 54.4277 338.665 54.0784 337.682L49.4247 346.971C49.9278 347.692 50.6196 348.052 51.5 348.052Z" fill="url(#paint33_linear_122_130)" fill-opacity="0.6"/>
<path d="M52.7577 371.637H55.8392V372.738H47.8525V371.637H51.4162V359.957L48.0202 361.973L47.4333 361.038L51.6258 358.461H52.7577V371.637Z" fill="url(#paint34_linear_122_130)" fill-opacity="0.6"/>
<path d="M52.7577 395.388H55.8392V396.489H47.8525V395.388H51.4162V383.708L48.0202 385.724L47.4333 384.789L51.6258 382.212H52.7577V395.388Z" fill="url(#paint35_linear_122_130)" fill-opacity="0.6"/>
<path d="M51.5 405.755C52.9953 405.755 54.1273 406.386 54.8959 407.646C55.6785 408.893 56.0698 410.708 56.0698 413.091C56.0698 415.474 55.6785 417.296 54.8959 418.557C54.1273 419.818 52.9953 420.448 51.5 420.448C50.0187 420.448 48.8867 419.818 48.1041 418.557C47.3215 417.296 46.9302 415.474 46.9302 413.091C46.9302 410.722 47.3215 408.907 48.1041 407.646C48.8867 406.386 50.0187 405.755 51.5 405.755ZM48.4185 413.091C48.4185 414.782 48.5723 416.105 48.8797 417.061L53.5334 407.854C53.0442 407.203 52.3664 406.878 51.5 406.878C50.5357 406.878 49.7811 407.39 49.2361 408.415C48.691 409.427 48.4185 410.985 48.4185 413.091ZM51.5 419.305C52.4782 419.305 53.2399 418.8 53.7849 417.788C54.3299 416.763 54.6024 415.197 54.6024 413.091C54.6024 411.304 54.4277 409.919 54.0784 408.935L49.4247 418.225C49.9278 418.945 50.6196 419.305 51.5 419.305Z" fill="url(#paint36_linear_122_130)" fill-opacity="0.6"/>
<path d="M52.7577 442.89H55.8392V443.992H47.8525V442.89H51.4162V431.21L48.0202 433.226L47.4333 432.291L51.6258 429.714H52.7577V442.89Z" fill="url(#paint37_linear_122_130)" fill-opacity="0.6"/>
<path d="M52.7577 466.641H55.8392V467.743H47.8525V466.641H51.4162V454.962L48.0202 456.977L47.4333 456.042L51.6258 453.465H52.7577V466.641Z" fill="url(#paint38_linear_122_130)" fill-opacity="0.6"/>
<path d="M51.5 477.008C52.9953 477.008 54.1273 477.639 54.8959 478.9C55.6785 480.147 56.0698 481.962 56.0698 484.345C56.0698 486.728 55.6785 488.549 54.8959 489.81C54.1273 491.071 52.9953 491.701 51.5 491.701C50.0187 491.701 48.8867 491.071 48.1041 489.81C47.3215 488.549 46.9302 486.728 46.9302 484.345C46.9302 481.975 47.3215 480.16 48.1041 478.9C48.8867 477.639 50.0187 477.008 51.5 477.008ZM48.4185 484.345C48.4185 486.035 48.5723 487.358 48.8797 488.314L53.5334 479.107C53.0442 478.456 52.3664 478.131 51.5 478.131C50.5357 478.131 49.7811 478.643 49.2361 479.669C48.691 480.68 48.4185 482.239 48.4185 484.345ZM51.5 490.558C52.4782 490.558 53.2399 490.053 53.7849 489.041C54.3299 488.016 54.6024 486.451 54.6024 484.345C54.6024 482.557 54.4277 481.172 54.0784 480.188L49.4247 489.478C49.9278 490.198 50.6196 490.558 51.5 490.558Z" fill="url(#paint39_linear_122_130)" fill-opacity="0.6"/>
<path d="M52.7577 514.143H55.8392V515.245H47.8525V514.143H51.4162V502.464L48.0202 504.48L47.4333 503.544L51.6258 500.967H52.7577V514.143Z" fill="url(#paint40_linear_122_130)" fill-opacity="0.6"/>
<path d="M51.5 524.511C52.9953 524.511 54.1273 525.141 54.8959 526.402C55.6785 527.649 56.0698 529.464 56.0698 531.847C56.0698 534.23 55.6785 536.052 54.8959 537.312C54.1273 538.573 52.9953 539.204 51.5 539.204C50.0187 539.204 48.8867 538.573 48.1041 537.312C47.3215 536.052 46.9302 534.23 46.9302 531.847C46.9302 529.478 47.3215 527.663 48.1041 526.402C48.8867 525.141 50.0187 524.511 51.5 524.511ZM48.4185 531.847C48.4185 533.537 48.5723 534.86 48.8797 535.816L53.5334 526.61C53.0442 525.958 52.3664 525.633 51.5 525.633C50.5357 525.633 49.7811 526.145 49.2361 527.171C48.691 528.182 48.4185 529.741 48.4185 531.847ZM51.5 538.061C52.4782 538.061 53.2399 537.555 53.7849 536.543C54.3299 535.518 54.6024 533.953 54.6024 531.847C54.6024 530.059 54.4277 528.674 54.0784 527.69L49.4247 536.98C49.9278 537.7 50.6196 538.061 51.5 538.061Z" fill="url(#paint41_linear_122_130)" fill-opacity="0.6"/>
<path d="M90.4302 310.751C91.9255 310.751 93.0575 311.381 93.8261 312.642C94.6087 313.889 95 315.704 95 318.087C95 320.47 94.6087 322.292 93.8261 323.553C93.0575 324.814 91.9255 325.444 90.4302 325.444C88.9489 325.444 87.8169 324.814 87.0343 323.553C86.2517 322.292 85.8604 320.47 85.8604 318.087C85.8604 315.718 86.2517 313.903 87.0343 312.642C87.8169 311.381 88.9489 310.751 90.4302 310.751ZM87.3487 318.087C87.3487 319.777 87.5024 321.101 87.8099 322.057L92.4636 312.85C91.9744 312.199 91.2966 311.873 90.4302 311.873C89.4659 311.873 88.7113 312.386 88.1663 313.411C87.6212 314.423 87.3487 315.981 87.3487 318.087ZM90.4302 324.301C91.4084 324.301 92.1701 323.795 92.7151 322.784C93.2601 321.759 93.5326 320.193 93.5326 318.087C93.5326 316.3 93.3579 314.914 93.0086 313.931L88.3549 323.22C88.858 323.941 89.5498 324.301 90.4302 324.301Z" fill="url(#paint42_linear_122_130)" fill-opacity="0.6"/>
<path d="M91.6879 347.886H94.7694V348.987H86.7827V347.886H90.3463V336.206L86.9504 338.222L86.3635 337.287L90.556 334.71H91.6879V347.886Z" fill="url(#paint43_linear_122_130)" fill-opacity="0.6"/>
<path d="M91.6879 371.637H94.7694V372.738H86.7827V371.637H90.3463V359.957L86.9504 361.973L86.3635 361.038L90.556 358.461H91.6879V371.637Z" fill="url(#paint44_linear_122_130)" fill-opacity="0.6"/>
<path d="M90.4302 382.004C91.9255 382.004 93.0575 382.635 93.8261 383.895C94.6087 385.142 95 386.957 95 389.34C95 391.723 94.6087 393.545 93.8261 394.806C93.0575 396.067 91.9255 396.697 90.4302 396.697C88.9489 396.697 87.8169 396.067 87.0343 394.806C86.2517 393.545 85.8604 391.723 85.8604 389.34C85.8604 386.971 86.2517 385.156 87.0343 383.895C87.8169 382.635 88.9489 382.004 90.4302 382.004ZM87.3487 389.34C87.3487 391.031 87.5024 392.354 87.8099 393.31L92.4636 384.103C91.9744 383.452 91.2966 383.126 90.4302 383.126C89.4659 383.126 88.7113 383.639 88.1663 384.664C87.6212 385.676 87.3487 387.234 87.3487 389.34ZM90.4302 395.554C91.4084 395.554 92.1701 395.049 92.7151 394.037C93.2601 393.012 93.5326 391.446 93.5326 389.34C93.5326 387.553 93.3579 386.168 93.0086 385.184L88.3549 394.474C88.858 395.194 89.5498 395.554 90.4302 395.554Z" fill="url(#paint45_linear_122_130)" fill-opacity="0.6"/>
<path d="M90.4302 405.755C91.9255 405.755 93.0575 406.386 93.8261 407.646C94.6087 408.893 95 410.708 95 413.091C95 415.474 94.6087 417.296 93.8261 418.557C93.0575 419.818 91.9255 420.448 90.4302 420.448C88.9489 420.448 87.8169 419.818 87.0343 418.557C86.2517 417.296 85.8604 415.474 85.8604 413.091C85.8604 410.722 86.2517 408.907 87.0343 407.646C87.8169 406.386 88.9489 405.755 90.4302 405.755ZM87.3487 413.091C87.3487 414.782 87.5024 416.105 87.8099 417.061L92.4636 407.854C91.9744 407.203 91.2966 406.878 90.4302 406.878C89.4659 406.878 88.7113 407.39 88.1663 408.415C87.6212 409.427 87.3487 410.985 87.3487 413.091ZM90.4302 419.305C91.4084 419.305 92.1701 418.8 92.7151 417.788C93.2601 416.763 93.5326 415.197 93.5326 413.091C93.5326 411.304 93.3579 409.919 93.0086 408.935L88.3549 418.225C88.858 418.945 89.5498 419.305 90.4302 419.305Z" fill="url(#paint46_linear_122_130)" fill-opacity="0.6"/>
<g opacity="0.6">
<path d="M918.93 -13C920.356 -13 921.436 -12.395 922.17 -11.1851C922.916 -9.9885 923.29 -8.24675 923.29 -5.95987C923.29 -3.67299 922.916 -1.9246 922.17 -0.714679C921.436 0.495239 920.356 1.1002 918.93 1.1002C917.517 1.1002 916.437 0.495239 915.69 -0.714679C914.943 -1.9246 914.57 -3.67299 914.57 -5.95987C914.57 -8.23346 914.943 -9.97521 915.69 -11.1851C916.437 -12.395 917.517 -13 918.93 -13ZM915.99 -5.95987C915.99 -4.33778 916.137 -3.06804 916.43 -2.15063L920.87 -10.9857C920.403 -11.6106 919.756 -11.923 918.93 -11.923C918.01 -11.923 917.29 -11.4311 916.77 -10.4472C916.25 -9.47661 915.99 -7.98083 915.99 -5.95987ZM918.93 0.00329448C919.863 0.00329448 920.59 -0.482002 921.11 -1.4526C921.63 -2.43649 921.89 -3.93891 921.89 -5.95987C921.89 -7.67503 921.723 -9.00461 921.39 -9.94861L916.95 -1.03378C917.43 -0.342396 918.09 0.00329448 918.93 0.00329448Z" fill="url(#paint47_linear_122_130)"/>
<path d="M920.13 22.6365H923.07V23.6936H915.45V22.6365H918.85V11.4282L915.61 13.3627L915.05 12.4653L919.05 9.99224H920.13V22.6365Z" fill="url(#paint48_linear_122_130)"/>
<path d="M918.93 32.5856C920.356 32.5856 921.436 33.1906 922.17 34.4005C922.916 35.5971 923.29 37.3389 923.29 39.6257C923.29 41.9126 922.916 43.661 922.17 44.8709C921.436 46.0808 920.356 46.6858 918.93 46.6858C917.517 46.6858 916.437 46.0808 915.69 44.8709C914.943 43.661 914.57 41.9126 914.57 39.6257C914.57 37.3522 914.943 35.6104 915.69 34.4005C916.437 33.1906 917.517 32.5856 918.93 32.5856ZM915.99 39.6257C915.99 41.2478 916.137 42.5176 916.43 43.435L920.87 34.5999C920.403 33.975 919.756 33.6626 918.93 33.6626C918.01 33.6626 917.29 34.1545 916.77 35.1384C916.25 36.109 915.99 37.6048 915.99 39.6257ZM918.93 45.5889C919.863 45.5889 920.59 45.1036 921.11 44.133C921.63 43.1491 921.89 41.6467 921.89 39.6257C921.89 37.9106 921.723 36.581 921.39 35.637L916.95 44.5518C917.43 45.2432 918.09 45.5889 918.93 45.5889Z" fill="url(#paint49_linear_122_130)"/>
<path d="M920.13 68.2221H923.07V69.2792H915.45V68.2221H918.85V57.0138L915.61 58.9483L915.05 58.0509L919.05 55.5778H920.13V68.2221Z" fill="url(#paint50_linear_122_130)"/>
<path d="M920.13 91.015H923.07V92.072H915.45V91.015H918.85V79.8066L915.61 81.7411L915.05 80.8437L919.05 78.3706H920.13V91.015Z" fill="url(#paint51_linear_122_130)"/>
<path d="M918.93 100.964C920.356 100.964 921.436 101.569 922.17 102.779C922.916 103.976 923.29 105.717 923.29 108.004C923.29 110.291 922.916 112.039 922.17 113.249C921.436 114.459 920.356 115.064 918.93 115.064C917.517 115.064 916.437 114.459 915.69 113.249C914.943 112.039 914.57 110.291 914.57 108.004C914.57 105.731 914.943 103.989 915.69 102.779C916.437 101.569 917.517 100.964 918.93 100.964ZM915.99 108.004C915.99 109.626 916.137 110.896 916.43 111.813L920.87 102.978C920.403 102.353 919.756 102.041 918.93 102.041C918.01 102.041 917.29 102.533 916.77 103.517C916.25 104.487 915.99 105.983 915.99 108.004ZM918.93 113.967C919.863 113.967 920.59 113.482 921.11 112.511C921.63 111.528 921.89 110.025 921.89 108.004C921.89 106.289 921.723 104.959 921.39 104.015L916.95 112.93C917.43 113.622 918.09 113.967 918.93 113.967Z" fill="url(#paint52_linear_122_130)"/>
<path d="M920.13 136.601H923.07V137.658H915.45V136.601H918.85V125.392L915.61 127.327L915.05 126.429L919.05 123.956H920.13V136.601Z" fill="url(#paint53_linear_122_130)"/>
<path d="M918.93 146.55C920.356 146.55 921.436 147.155 922.17 148.365C922.916 149.561 923.29 151.303 923.29 153.59C923.29 155.877 922.916 157.625 922.17 158.835C921.436 160.045 920.356 160.65 918.93 160.65C917.517 160.65 916.437 160.045 915.69 158.835C914.943 157.625 914.57 155.877 914.57 153.59C914.57 151.316 914.943 149.574 915.69 148.365C916.437 147.155 917.517 146.55 918.93 146.55ZM915.99 153.59C915.99 155.212 916.137 156.482 916.43 157.399L920.87 148.564C920.403 147.939 919.756 147.627 918.93 147.627C918.01 147.627 917.29 148.119 916.77 149.102C916.25 150.073 915.99 151.569 915.99 153.59ZM918.93 159.553C919.863 159.553 920.59 159.068 921.11 158.097C921.63 157.113 921.89 155.611 921.89 153.59C921.89 151.875 921.723 150.545 921.39 149.601L916.95 158.516C917.43 159.207 918.09 159.553 918.93 159.553Z" fill="url(#paint54_linear_122_130)"/>
<path d="M918.93 169.342C920.356 169.342 921.436 169.947 922.17 171.157C922.916 172.354 923.29 174.096 923.29 176.383C923.29 178.669 922.916 180.418 922.17 181.628C921.436 182.838 920.356 183.443 918.93 183.443C917.517 183.443 916.437 182.838 915.69 181.628C914.943 180.418 914.57 178.669 914.57 176.383C914.57 174.109 914.943 172.367 915.69 171.157C916.437 169.947 917.517 169.342 918.93 169.342ZM915.99 176.383C915.99 178.005 916.137 179.274 916.43 180.192L920.87 171.357C920.403 170.732 919.756 170.419 918.93 170.419C918.01 170.419 917.29 170.911 916.77 171.895C916.25 172.866 915.99 174.362 915.99 176.383ZM918.93 182.346C919.863 182.346 920.59 181.86 921.11 180.89C921.63 179.906 921.89 178.404 921.89 176.383C921.89 174.667 921.723 173.338 921.39 172.394L916.95 181.309C917.43 182 918.09 182.346 918.93 182.346Z" fill="url(#paint55_linear_122_130)"/>
<path d="M920.13 204.979H923.07V206.036H915.45V204.979H918.85V193.771L915.61 195.705L915.05 194.808L919.05 192.335H920.13V204.979Z" fill="url(#paint56_linear_122_130)"/>
<path d="M918.93 214.928C920.356 214.928 921.436 215.533 922.17 216.743C922.916 217.94 923.29 219.681 923.29 221.968C923.29 224.255 922.916 226.003 922.17 227.213C921.436 228.423 920.356 229.028 918.93 229.028C917.517 229.028 916.437 228.423 915.69 227.213C914.943 226.003 914.57 224.255 914.57 221.968C914.57 219.695 914.943 217.953 915.69 216.743C916.437 215.533 917.517 214.928 918.93 214.928ZM915.99 221.968C915.99 223.59 916.137 224.86 916.43 225.777L920.87 216.942C920.403 216.317 919.756 216.005 918.93 216.005C918.01 216.005 917.29 216.497 916.77 217.481C916.25 218.451 915.99 219.947 915.99 221.968ZM918.93 227.931C919.863 227.931 920.59 227.446 921.11 226.475C921.63 225.492 921.89 223.989 921.89 221.968C921.89 220.253 921.723 218.923 921.39 217.979L916.95 226.894C917.43 227.586 918.09 227.931 918.93 227.931Z" fill="url(#paint57_linear_122_130)"/>
<path d="M920.13 250.565H923.07V251.622H915.45V250.565H918.85V239.356L915.61 241.291L915.05 240.393L919.05 237.92H920.13V250.565Z" fill="url(#paint58_linear_122_130)"/>
<path d="M920.13 273.357H923.07V274.414H915.45V273.357H918.85V262.149L915.61 264.084L915.05 263.186L919.05 260.713H920.13V273.357Z" fill="url(#paint59_linear_122_130)"/>
<path d="M956.07 32.5856C957.497 32.5856 958.577 33.1906 959.31 34.4005C960.057 35.5971 960.43 37.3389 960.43 39.6257C960.43 41.9126 960.057 43.661 959.31 44.8709C958.577 46.0808 957.497 46.6858 956.07 46.6858C954.657 46.6858 953.577 46.0808 952.83 44.8709C952.084 43.661 951.71 41.9126 951.71 39.6257C951.71 37.3522 952.084 35.6104 952.83 34.4005C953.577 33.1906 954.657 32.5856 956.07 32.5856ZM953.13 39.6257C953.13 41.2478 953.277 42.5176 953.57 43.435L958.01 34.5999C957.543 33.975 956.897 33.6626 956.07 33.6626C955.15 33.6626 954.43 34.1545 953.91 35.1384C953.39 36.109 953.13 37.6048 953.13 39.6257ZM956.07 45.5889C957.003 45.5889 957.73 45.1036 958.25 44.133C958.77 43.1491 959.03 41.6467 959.03 39.6257C959.03 37.9106 958.863 36.581 958.53 35.637L954.09 44.5518C954.57 45.2432 955.23 45.5889 956.07 45.5889Z" fill="url(#paint60_linear_122_130)"/>
<path d="M957.27 68.2221H960.21V69.2792H952.59V68.2221H955.99V57.0138L952.75 58.9483L952.19 58.0509L956.19 55.5778H957.27V68.2221Z" fill="url(#paint61_linear_122_130)"/>
<path d="M956.07 78.1712C957.497 78.1712 958.577 78.7762 959.31 79.9861C960.057 81.1827 960.43 82.9245 960.43 85.2113C960.43 87.4982 960.057 89.2466 959.31 90.4565C958.577 91.6664 957.497 92.2714 956.07 92.2714C954.657 92.2714 953.577 91.6664 952.83 90.4565C952.084 89.2466 951.71 87.4982 951.71 85.2113C951.71 82.9378 952.084 81.196 952.83 79.9861C953.577 78.7762 954.657 78.1712 956.07 78.1712ZM953.13 85.2113C953.13 86.8334 953.277 88.1032 953.57 89.0206L958.01 80.1855C957.543 79.5606 956.897 79.2482 956.07 79.2482C955.15 79.2482 954.43 79.7401 953.91 80.724C953.39 81.6946 953.13 83.1904 953.13 85.2113ZM956.07 91.1745C957.003 91.1745 957.73 90.6892 958.25 89.7186C958.77 88.7347 959.03 87.2323 959.03 85.2113C959.03 83.4962 958.863 82.1666 958.53 81.2226L954.09 90.1374C954.57 90.8288 955.23 91.1745 956.07 91.1745Z" fill="url(#paint62_linear_122_130)"/>
<path d="M956.07 100.964C957.497 100.964 958.577 101.569 959.31 102.779C960.057 103.976 960.43 105.717 960.43 108.004C960.43 110.291 960.057 112.039 959.31 113.249C958.577 114.459 957.497 115.064 956.07 115.064C954.657 115.064 953.577 114.459 952.83 113.249C952.084 112.039 951.71 110.291 951.71 108.004C951.71 105.731 952.084 103.989 952.83 102.779C953.577 101.569 954.657 100.964 956.07 100.964ZM953.13 108.004C953.13 109.626 953.277 110.896 953.57 111.813L958.01 102.978C957.543 102.353 956.897 102.041 956.07 102.041C955.15 102.041 954.43 102.533 953.91 103.517C953.39 104.487 953.13 105.983 953.13 108.004ZM956.07 113.967C957.003 113.967 957.73 113.482 958.25 112.511C958.77 111.528 959.03 110.025 959.03 108.004C959.03 106.289 958.863 104.959 958.53 104.015L954.09 112.93C954.57 113.622 955.23 113.967 956.07 113.967Z" fill="url(#paint63_linear_122_130)"/>
<path d="M957.27 136.601H960.21V137.658H952.59V136.601H955.99V125.392L952.75 127.327L952.19 126.429L956.19 123.956H957.27V136.601Z" fill="url(#paint64_linear_122_130)"/>
<path d="M956.07 146.55C957.497 146.55 958.577 147.155 959.31 148.365C960.057 149.561 960.43 151.303 960.43 153.59C960.43 155.877 960.057 157.625 959.31 158.835C958.577 160.045 957.497 160.65 956.07 160.65C954.657 160.65 953.577 160.045 952.83 158.835C952.084 157.625 951.71 155.877 951.71 153.59C951.71 151.316 952.084 149.574 952.83 148.365C953.577 147.155 954.657 146.55 956.07 146.55ZM953.13 153.59C953.13 155.212 953.277 156.482 953.57 157.399L958.01 148.564C957.543 147.939 956.897 147.627 956.07 147.627C955.15 147.627 954.43 148.119 953.91 149.102C953.39 150.073 953.13 151.569 953.13 153.59ZM956.07 159.553C957.003 159.553 957.73 159.068 958.25 158.097C958.77 157.113 959.03 155.611 959.03 153.59C959.03 151.875 958.863 150.545 958.53 149.601L954.09 158.516C954.57 159.207 955.23 159.553 956.07 159.553Z" fill="url(#paint65_linear_122_130)"/>
<path d="M957.27 182.186H960.21V183.243H952.59V182.186H955.99V170.978L952.75 172.912L952.19 172.015L956.19 169.542H957.27V182.186Z" fill="url(#paint66_linear_122_130)"/>
<path d="M956.07 192.135C957.497 192.135 958.577 192.74 959.31 193.95C960.057 195.147 960.43 196.888 960.43 199.175C960.43 201.462 960.057 203.211 959.31 204.421C958.577 205.63 957.497 206.235 956.07 206.235C954.657 206.235 953.577 205.63 952.83 204.421C952.084 203.211 951.71 201.462 951.71 199.175C951.71 196.902 952.084 195.16 952.83 193.95C953.577 192.74 954.657 192.135 956.07 192.135ZM953.13 199.175C953.13 200.797 953.277 202.067 953.57 202.985L958.01 194.15C957.543 193.525 956.897 193.212 956.07 193.212C955.15 193.212 954.43 193.704 953.91 194.688C953.39 195.659 953.13 197.154 953.13 199.175ZM956.07 205.139C957.003 205.139 957.73 204.653 958.25 203.683C958.77 202.699 959.03 201.196 959.03 199.175C959.03 197.46 958.863 196.131 958.53 195.187L954.09 204.101C954.57 204.793 955.23 205.139 956.07 205.139Z" fill="url(#paint67_linear_122_130)"/>
<path d="M956.07 214.928C957.497 214.928 958.577 215.533 959.31 216.743C960.057 217.94 960.43 219.681 960.43 221.968C960.43 224.255 960.057 226.003 959.31 227.213C958.577 228.423 957.497 229.028 956.07 229.028C954.657 229.028 953.577 228.423 952.83 227.213C952.084 226.003 951.71 224.255 951.71 221.968C951.71 219.695 952.084 217.953 952.83 216.743C953.577 215.533 954.657 214.928 956.07 214.928ZM953.13 221.968C953.13 223.59 953.277 224.86 953.57 225.777L958.01 216.942C957.543 216.317 956.897 216.005 956.07 216.005C955.15 216.005 954.43 216.497 953.91 217.481C953.39 218.451 953.13 219.947 953.13 221.968ZM956.07 227.931C957.003 227.931 957.73 227.446 958.25 226.475C958.77 225.492 959.03 223.989 959.03 221.968C959.03 220.253 958.863 218.923 958.53 217.979L954.09 226.894C954.57 227.586 955.23 227.931 956.07 227.931Z" fill="url(#paint68_linear_122_130)"/>
<path d="M957.27 250.565H960.21V251.622H952.59V250.565H955.99V239.356L952.75 241.291L952.19 240.393L956.19 237.92H957.27V250.565Z" fill="url(#paint69_linear_122_130)"/>
<path d="M956.07 260.514C957.497 260.514 958.577 261.119 959.31 262.329C960.057 263.525 960.43 265.267 960.43 267.554C960.43 269.841 960.057 271.589 959.31 272.799C958.577 274.009 957.497 274.614 956.07 274.614C954.657 274.614 953.577 274.009 952.83 272.799C952.084 271.589 951.71 269.841 951.71 267.554C951.71 265.28 952.084 263.538 952.83 262.329C953.577 261.119 954.657 260.514 956.07 260.514ZM953.13 267.554C953.13 269.176 953.277 270.446 953.57 271.363L958.01 262.528C957.543 261.903 956.897 261.591 956.07 261.591C955.15 261.591 954.43 262.083 953.91 263.066C953.39 264.037 953.13 265.533 953.13 267.554ZM956.07 273.517C957.003 273.517 957.73 273.032 958.25 272.061C958.77 271.077 959.03 269.575 959.03 267.554C959.03 265.839 958.863 264.509 958.53 263.565L954.09 272.48C954.57 273.171 955.23 273.517 956.07 273.517Z" fill="url(#paint70_linear_122_130)"/>
<path d="M957.27 296.15H960.21V297.207H952.59V296.15H955.99V284.942L952.75 286.876L952.19 285.979L956.19 283.506H957.27V296.15Z" fill="url(#paint71_linear_122_130)"/>
<path d="M957.27 318.943H960.21V320H952.59V318.943H955.99V307.735L952.75 309.669L952.19 308.772L956.19 306.299H957.27V318.943Z" fill="url(#paint72_linear_122_130)"/>
<path d="M900.36 55.3784C901.786 55.3784 902.866 55.9834 903.599 57.1933C904.346 58.3899 904.719 60.1317 904.719 62.4185C904.719 64.7054 904.346 66.4538 903.599 67.6637C902.866 68.8736 901.786 69.4786 900.36 69.4786C898.946 69.4786 897.867 68.8736 897.12 67.6637C896.373 66.4538 896 64.7054 896 62.4185C896 60.145 896.373 58.4032 897.12 57.1933C897.867 55.9834 898.946 55.3784 900.36 55.3784ZM897.42 62.4185C897.42 64.0406 897.567 65.3104 897.86 66.2278L902.3 57.3927C901.833 56.7678 901.186 56.4554 900.36 56.4554C899.44 56.4554 898.72 56.9473 898.2 57.9312C897.68 58.9018 897.42 60.3976 897.42 62.4185ZM900.36 68.3817C901.293 68.3817 902.02 67.8964 902.54 66.9258C903.06 65.9419 903.319 64.4395 903.319 62.4185C903.319 60.7034 903.153 59.3738 902.82 58.4298L898.38 67.3446C898.86 68.036 899.52 68.3817 900.36 68.3817Z" fill="url(#paint73_linear_122_130)"/>
<path d="M900.36 78.1712C901.786 78.1712 902.866 78.7762 903.599 79.9861C904.346 81.1827 904.719 82.9245 904.719 85.2113C904.719 87.4982 904.346 89.2466 903.599 90.4565C902.866 91.6664 901.786 92.2714 900.36 92.2714C898.946 92.2714 897.867 91.6664 897.12 90.4565C896.373 89.2466 896 87.4982 896 85.2113C896 82.9378 896.373 81.196 897.12 79.9861C897.867 78.7762 898.946 78.1712 900.36 78.1712ZM897.42 85.2113C897.42 86.8334 897.567 88.1032 897.86 89.0206L902.3 80.1855C901.833 79.5606 901.186 79.2482 900.36 79.2482C899.44 79.2482 898.72 79.7401 898.2 80.724C897.68 81.6946 897.42 83.1904 897.42 85.2113ZM900.36 91.1745C901.293 91.1745 902.02 90.6892 902.54 89.7186C903.06 88.7347 903.319 87.2323 903.319 85.2113C903.319 83.4962 903.153 82.1666 902.82 81.2226L898.38 90.1374C898.86 90.8288 899.52 91.1745 900.36 91.1745Z" fill="url(#paint74_linear_122_130)"/>
<path d="M901.56 113.808H904.499V114.865H896.88V113.808H900.28V102.599L897.04 104.534L896.48 103.636L900.48 101.163H901.56V113.808Z" fill="url(#paint75_linear_122_130)"/>
<path d="M900.36 123.757C901.786 123.757 902.866 124.362 903.599 125.572C904.346 126.768 904.719 128.51 904.719 130.797C904.719 133.084 904.346 134.832 903.599 136.042C902.866 137.252 901.786 137.857 900.36 137.857C898.946 137.857 897.867 137.252 897.12 136.042C896.373 134.832 896 133.084 896 130.797C896 128.523 896.373 126.782 897.12 125.572C897.867 124.362 898.946 123.757 900.36 123.757ZM897.42 130.797C897.42 132.419 897.567 133.689 897.86 134.606L902.3 125.771C901.833 125.146 901.186 124.834 900.36 124.834C899.44 124.834 898.72 125.326 898.2 126.31C897.68 127.28 897.42 128.776 897.42 130.797ZM900.36 136.76C901.293 136.76 902.02 136.275 902.54 135.304C903.06 134.32 903.319 132.818 903.319 130.797C903.319 129.082 903.153 127.752 902.82 126.808L898.38 135.723C898.86 136.414 899.52 136.76 900.36 136.76Z" fill="url(#paint76_linear_122_130)"/>
<path d="M901.56 159.393H904.499V160.45H896.88V159.393H900.28V148.185L897.04 150.12L896.48 149.222L900.48 146.749H901.56V159.393Z" fill="url(#paint77_linear_122_130)"/>
<path d="M901.56 182.186H904.499V183.243H896.88V182.186H900.28V170.978L897.04 172.912L896.48 172.015L900.48 169.542H901.56V182.186Z" fill="url(#paint78_linear_122_130)"/>
<path d="M938.7 22.6365H941.64V23.6936H934.02V22.6365H937.42V11.4282L934.18 13.3627L933.62 12.4653L937.62 9.99224H938.7V22.6365Z" fill="url(#paint79_linear_122_130)"/>
<path d="M937.5 32.5856C938.927 32.5856 940.006 33.1906 940.74 34.4005C941.486 35.5971 941.86 37.3389 941.86 39.6257C941.86 41.9126 941.486 43.661 940.74 44.8709C940.006 46.0808 938.927 46.6858 937.5 46.6858C936.087 46.6858 935.007 46.0808 934.26 44.8709C933.514 43.661 933.14 41.9126 933.14 39.6257C933.14 37.3522 933.514 35.6104 934.26 34.4005C935.007 33.1906 936.087 32.5856 937.5 32.5856ZM934.56 39.6257C934.56 41.2478 934.707 42.5176 935 43.435L939.44 34.5999C938.973 33.975 938.327 33.6626 937.5 33.6626C936.58 33.6626 935.86 34.1545 935.34 35.1384C934.82 36.109 934.56 37.6048 934.56 39.6257ZM937.5 45.5889C938.433 45.5889 939.16 45.1036 939.68 44.133C940.2 43.1491 940.46 41.6467 940.46 39.6257C940.46 37.9106 940.293 36.581 939.96 35.637L935.52 44.5518C936 45.2432 936.66 45.5889 937.5 45.5889Z" fill="url(#paint80_linear_122_130)"/>
<path d="M938.7 68.2221H941.64V69.2792H934.02V68.2221H937.42V57.0138L934.18 58.9483L933.62 58.0509L937.62 55.5778H938.7V68.2221Z" fill="url(#paint81_linear_122_130)"/>
<path d="M938.7 91.015H941.64V92.072H934.02V91.015H937.42V79.8066L934.18 81.7411L933.62 80.8437L937.62 78.3706H938.7V91.015Z" fill="url(#paint82_linear_122_130)"/>
<path d="M937.5 100.964C938.927 100.964 940.006 101.569 940.74 102.779C941.486 103.976 941.86 105.717 941.86 108.004C941.86 110.291 941.486 112.039 940.74 113.249C940.006 114.459 938.927 115.064 937.5 115.064C936.087 115.064 935.007 114.459 934.26 113.249C933.514 112.039 933.14 110.291 933.14 108.004C933.14 105.731 933.514 103.989 934.26 102.779C935.007 101.569 936.087 100.964 937.5 100.964ZM934.56 108.004C934.56 109.626 934.707 110.896 935 111.813L939.44 102.978C938.973 102.353 938.327 102.041 937.5 102.041C936.58 102.041 935.86 102.533 935.34 103.517C934.82 104.487 934.56 105.983 934.56 108.004ZM937.5 113.967C938.433 113.967 939.16 113.482 939.68 112.511C940.2 111.528 940.46 110.025 940.46 108.004C940.46 106.289 940.293 104.959 939.96 104.015L935.52 112.93C936 113.622 936.66 113.967 937.5 113.967Z" fill="url(#paint83_linear_122_130)"/>
<path d="M938.7 136.601H941.64V137.658H934.02V136.601H937.42V125.392L934.18 127.327L933.62 126.429L937.62 123.956H938.7V136.601Z" fill="url(#paint84_linear_122_130)"/>
<path d="M938.7 159.393H941.64V160.45H934.02V159.393H937.42V148.185L934.18 150.12L933.62 149.222L937.62 146.749H938.7V159.393Z" fill="url(#paint85_linear_122_130)"/>
<path d="M937.5 169.342C938.927 169.342 940.006 169.947 940.74 171.157C941.486 172.354 941.86 174.096 941.86 176.383C941.86 178.669 941.486 180.418 940.74 181.628C940.006 182.838 938.927 183.443 937.5 183.443C936.087 183.443 935.007 182.838 934.26 181.628C933.514 180.418 933.14 178.669 933.14 176.383C933.14 174.109 933.514 172.367 934.26 171.157C935.007 169.947 936.087 169.342 937.5 169.342ZM934.56 176.383C934.56 178.005 934.707 179.274 935 180.192L939.44 171.357C938.973 170.732 938.327 170.419 937.5 170.419C936.58 170.419 935.86 170.911 935.34 171.895C934.82 172.866 934.56 174.362 934.56 176.383ZM937.5 182.346C938.433 182.346 939.16 181.86 939.68 180.89C940.2 179.906 940.46 178.404 940.46 176.383C940.46 174.667 940.293 173.338 939.96 172.394L935.52 181.309C936 182 936.66 182.346 937.5 182.346Z" fill="url(#paint86_linear_122_130)"/>
<path d="M938.7 204.979H941.64V206.036H934.02V204.979H937.42V193.771L934.18 195.705L933.62 194.808L937.62 192.335H938.7V204.979Z" fill="url(#paint87_linear_122_130)"/>
<path d="M937.5 214.928C938.927 214.928 940.006 215.533 940.74 216.743C941.486 217.94 941.86 219.681 941.86 221.968C941.86 224.255 941.486 226.003 940.74 227.213C940.006 228.423 938.927 229.028 937.5 229.028C936.087 229.028 935.007 228.423 934.26 227.213C933.514 226.003 933.14 224.255 933.14 221.968C933.14 219.695 933.514 217.953 934.26 216.743C935.007 215.533 936.087 214.928 937.5 214.928ZM934.56 221.968C934.56 223.59 934.707 224.86 935 225.777L939.44 216.942C938.973 216.317 938.327 216.005 937.5 216.005C936.58 216.005 935.86 216.497 935.34 217.481C934.82 218.451 934.56 219.947 934.56 221.968ZM937.5 227.931C938.433 227.931 939.16 227.446 939.68 226.475C940.2 225.492 940.46 223.989 940.46 221.968C940.46 220.253 940.293 218.923 939.96 217.979L935.52 226.894C936 227.586 936.66 227.931 937.5 227.931Z" fill="url(#paint88_linear_122_130)"/>
<path d="M974.64 9.7928C976.067 9.7928 977.147 10.3978 977.88 11.6077C978.627 12.8043 979 14.5461 979 16.8329C979 19.1198 978.627 20.8682 977.88 22.0781C977.147 23.288 976.067 23.893 974.64 23.893C973.227 23.893 972.147 23.288 971.401 22.0781C970.654 20.8682 970.281 19.1198 970.281 16.8329C970.281 14.5593 970.654 12.8176 971.401 11.6077C972.147 10.3978 973.227 9.7928 974.64 9.7928ZM971.7 16.8329C971.7 18.455 971.847 19.7248 972.14 20.6422L976.58 11.8071C976.114 11.1822 975.467 10.8698 974.64 10.8698C973.72 10.8698 973 11.3617 972.48 12.3456C971.96 13.3162 971.7 14.812 971.7 16.8329ZM974.64 22.7961C975.574 22.7961 976.3 22.3108 976.82 21.3402C977.34 20.3563 977.6 18.8539 977.6 16.8329C977.6 15.1178 977.433 13.7882 977.1 12.8442L972.66 21.759C973.14 22.4504 973.8 22.7961 974.64 22.7961Z" fill="url(#paint89_linear_122_130)"/>
<path d="M975.84 45.4293H978.78V46.4864H971.161V45.4293H974.56V34.221L971.321 36.1555L970.761 35.2581L974.76 32.785H975.84V45.4293Z" fill="url(#paint90_linear_122_130)"/>
<path d="M975.84 68.2221H978.78V69.2792H971.161V68.2221H974.56V57.0138L971.321 58.9483L970.761 58.0509L974.76 55.5778H975.84V68.2221Z" fill="url(#paint91_linear_122_130)"/>
<path d="M974.64 78.1712C976.067 78.1712 977.147 78.7762 977.88 79.9861C978.627 81.1827 979 82.9245 979 85.2113C979 87.4982 978.627 89.2466 977.88 90.4565C977.147 91.6664 976.067 92.2714 974.64 92.2714C973.227 92.2714 972.147 91.6664 971.401 90.4565C970.654 89.2466 970.281 87.4982 970.281 85.2113C970.281 82.9378 970.654 81.196 971.401 79.9861C972.147 78.7762 973.227 78.1712 974.64 78.1712ZM971.7 85.2113C971.7 86.8334 971.847 88.1032 972.14 89.0206L976.58 80.1855C976.114 79.5606 975.467 79.2482 974.64 79.2482C973.72 79.2482 973 79.7401 972.48 80.724C971.96 81.6946 971.7 83.1904 971.7 85.2113ZM974.64 91.1745C975.574 91.1745 976.3 90.6892 976.82 89.7186C977.34 88.7347 977.6 87.2323 977.6 85.2113C977.6 83.4962 977.433 82.1666 977.1 81.2226L972.66 90.1374C973.14 90.8288 973.8 91.1745 974.64 91.1745Z" fill="url(#paint92_linear_122_130)"/>
<path d="M974.64 100.964C976.067 100.964 977.147 101.569 977.88 102.779C978.627 103.976 979 105.717 979 108.004C979 110.291 978.627 112.039 977.88 113.249C977.147 114.459 976.067 115.064 974.64 115.064C973.227 115.064 972.147 114.459 971.401 113.249C970.654 112.039 970.281 110.291 970.281 108.004C970.281 105.731 970.654 103.989 971.401 102.779C972.147 101.569 973.227 100.964 974.64 100.964ZM971.7 108.004C971.7 109.626 971.847 110.896 972.14 111.813L976.58 102.978C976.114 102.353 975.467 102.041 974.64 102.041C973.72 102.041 973 102.533 972.48 103.517C971.96 104.487 971.7 105.983 971.7 108.004ZM974.64 113.967C975.574 113.967 976.3 113.482 976.82 112.511C977.34 111.528 977.6 110.025 977.6 108.004C977.6 106.289 977.433 104.959 977.1 104.015L972.66 112.93C973.14 113.622 973.8 113.967 974.64 113.967Z" fill="url(#paint93_linear_122_130)"/>
</g>
</g>
<defs>
<filter id="filter0_f_122_130" x="-559.19" y="-699.19" width="2141.38" height="1500.38" filterUnits="userSpaceOnUse" color-interpolation-filters="sRGB">
<feFlood flood-opacity="0" result="BackgroundImageFix"/>
<feBlend mode="normal" in="SourceGraphic" in2="BackgroundImageFix" result="shape"/>
<feGaussianBlur stdDeviation="200.095" result="effect1_foregroundBlur_122_130"/>
</filter>
<linearGradient id="paint0_linear_122_130" x1="51.5" y1="287" x2="51.5" y2="598.381" gradientUnits="userSpaceOnUse">
<stop stop-color="#F7DD43"/>
<stop offset="1" stop-color="#F7DD43" stop-opacity="0"/>
</linearGradient>
<linearGradient id="paint1_linear_122_130" x1="51.5" y1="287" x2="51.5" y2="598.381" gradientUnits="userSpaceOnUse">
<stop stop-color="#F7DD43"/>
<stop offset="1" stop-color="#F7DD43" stop-opacity="0"/>
</linearGradient>
<linearGradient id="paint2_linear_122_130" x1="51.5" y1="287" x2="51.5" y2="598.381" gradientUnits="userSpaceOnUse">
<stop stop-color="#F7DD43"/>
<stop offset="1" stop-color="#F7DD43" stop-opacity="0"/>
</linearGradient>
<linearGradient id="paint3_linear_122_130" x1="51.5" y1="287" x2="51.5" y2="598.381" gradientUnits="userSpaceOnUse">
<stop stop-color="#F7DD43"/>
<stop offset="1" stop-color="#F7DD43" stop-opacity="0"/>
</linearGradient>
<linearGradient id="paint4_linear_122_130" x1="51.5" y1="287" x2="51.5" y2="598.381" gradientUnits="userSpaceOnUse">
<stop stop-color="#F7DD43"/>
<stop offset="1" stop-color="#F7DD43" stop-opacity="0"/>
</linearGradient>
<linearGradient id="paint5_linear_122_130" x1="51.5" y1="287" x2="51.5" y2="598.381" gradientUnits="userSpaceOnUse">
<stop stop-color="#F7DD43"/>
<stop offset="1" stop-color="#F7DD43" stop-opacity="0"/>
</linearGradient>
<linearGradient id="paint6_linear_122_130" x1="51.5" y1="287" x2="51.5" y2="598.381" gradientUnits="userSpaceOnUse">
<stop stop-color="#F7DD43"/>
<stop offset="1" stop-color="#F7DD43" stop-opacity="0"/>
</linearGradient>
<linearGradient id="paint7_linear_122_130" x1="51.5" y1="287" x2="51.5" y2="598.381" gradientUnits="userSpaceOnUse">
<stop stop-color="#F7DD43"/>
<stop offset="1" stop-color="#F7DD43" stop-opacity="0"/>
</linearGradient>
<linearGradient id="paint8_linear_122_130" x1="51.5" y1="287" x2="51.5" y2="598.381" gradientUnits="userSpaceOnUse">
<stop stop-color="#F7DD43"/>
<stop offset="1" stop-color="#F7DD43" stop-opacity="0"/>
</linearGradient>
<linearGradient id="paint9_linear_122_130" x1="51.5" y1="287" x2="51.5" y2="598.381" gradientUnits="userSpaceOnUse">
<stop stop-color="#F7DD43"/>
<stop offset="1" stop-color="#F7DD43" stop-opacity="0"/>
</linearGradient>
<linearGradient id="paint10_linear_122_130" x1="51.5" y1="287" x2="51.5" y2="598.381" gradientUnits="userSpaceOnUse">
<stop stop-color="#F7DD43"/>
<stop offset="1" stop-color="#F7DD43" stop-opacity="0"/>
</linearGradient>
<linearGradient id="paint11_linear_122_130" x1="51.5" y1="287" x2="51.5" y2="598.381" gradientUnits="userSpaceOnUse">
<stop stop-color="#F7DD43"/>
<stop offset="1" stop-color="#F7DD43" stop-opacity="0"/>
</linearGradient>
<linearGradient id="paint12_linear_122_130" x1="51.5" y1="287" x2="51.5" y2="598.381" gradientUnits="userSpaceOnUse">
<stop stop-color="#F7DD43"/>
<stop offset="1" stop-color="#F7DD43" stop-opacity="0"/>
</linearGradient>
<linearGradient id="paint13_linear_122_130" x1="51.5" y1="287" x2="51.5" y2="598.381" gradientUnits="userSpaceOnUse">
<stop stop-color="#F7DD43"/>
<stop offset="1" stop-color="#F7DD43" stop-opacity="0"/>
</linearGradient>
<linearGradient id="paint14_linear_122_130" x1="51.5" y1="287" x2="51.5" y2="598.381" gradientUnits="userSpaceOnUse">
<stop stop-color="#F7DD43"/>
<stop offset="1" stop-color="#F7DD43" stop-opacity="0"/>
</linearGradient>
<linearGradient id="paint15_linear_122_130" x1="51.5" y1="287" x2="51.5" y2="598.381" gradientUnits="userSpaceOnUse">
<stop stop-color="#F7DD43"/>
<stop offset="1" stop-color="#F7DD43" stop-opacity="0"/>
</linearGradient>
<linearGradient id="paint16_linear_122_130" x1="51.5" y1="287" x2="51.5" y2="598.381" gradientUnits="userSpaceOnUse">
<stop stop-color="#F7DD43"/>
<stop offset="1" stop-color="#F7DD43" stop-opacity="0"/>
</linearGradient>
<linearGradient id="paint17_linear_122_130" x1="51.5" y1="287" x2="51.5" y2="598.381" gradientUnits="userSpaceOnUse">
<stop stop-color="#F7DD43"/>
<stop offset="1" stop-color="#F7DD43" stop-opacity="0"/>
</linearGradient>
<linearGradient id="paint18_linear_122_130" x1="51.5" y1="287" x2="51.5" y2="598.381" gradientUnits="userSpaceOnUse">
<stop stop-color="#F7DD43"/>
<stop offset="1" stop-color="#F7DD43" stop-opacity="0"/>
</linearGradient>
<linearGradient id="paint19_linear_122_130" x1="51.5" y1="287" x2="51.5" y2="598.381" gradientUnits="userSpaceOnUse">
<stop stop-color="#F7DD43"/>
<stop offset="1" stop-color="#F7DD43" stop-opacity="0"/>
</linearGradient>
<linearGradient id="paint20_linear_122_130" x1="51.5" y1="287" x2="51.5" y2="598.381" gradientUnits="userSpaceOnUse">
<stop stop-color="#F7DD43"/>
<stop offset="1" stop-color="#F7DD43" stop-opacity="0"/>
</linearGradient>
<linearGradient id="paint21_linear_122_130" x1="51.5" y1="287" x2="51.5" y2="598.381" gradientUnits="userSpaceOnUse">
<stop stop-color="#F7DD43"/>
<stop offset="1" stop-color="#F7DD43" stop-opacity="0"/>
</linearGradient>
<linearGradient id="paint22_linear_122_130" x1="51.5" y1="287" x2="51.5" y2="598.381" gradientUnits="userSpaceOnUse">
<stop stop-color="#F7DD43"/>
<stop offset="1" stop-color="#F7DD43" stop-opacity="0"/>
</linearGradient>
<linearGradient id="paint23_linear_122_130" x1="51.5" y1="287" x2="51.5" y2="598.381" gradientUnits="userSpaceOnUse">
<stop stop-color="#F7DD43"/>
<stop offset="1" stop-color="#F7DD43" stop-opacity="0"/>
</linearGradient>
<linearGradient id="paint24_linear_122_130" x1="51.5" y1="287" x2="51.5" y2="598.381" gradientUnits="userSpaceOnUse">
<stop stop-color="#F7DD43"/>
<stop offset="1" stop-color="#F7DD43" stop-opacity="0"/>
</linearGradient>
<linearGradient id="paint25_linear_122_130" x1="51.5" y1="287" x2="51.5" y2="598.381" gradientUnits="userSpaceOnUse">
<stop stop-color="#F7DD43"/>
<stop offset="1" stop-color="#F7DD43" stop-opacity="0"/>
</linearGradient>
<linearGradient id="paint26_linear_122_130" x1="51.5" y1="287" x2="51.5" y2="598.381" gradientUnits="userSpaceOnUse">
<stop stop-color="#F7DD43"/>
<stop offset="1" stop-color="#F7DD43" stop-opacity="0"/>
</linearGradient>
<linearGradient id="paint27_linear_122_130" x1="51.5" y1="287" x2="51.5" y2="598.381" gradientUnits="userSpaceOnUse">
<stop stop-color="#F7DD43"/>
<stop offset="1" stop-color="#F7DD43" stop-opacity="0"/>
</linearGradient>
<linearGradient id="paint28_linear_122_130" x1="51.5" y1="287" x2="51.5" y2="598.381" gradientUnits="userSpaceOnUse">
<stop stop-color="#F7DD43"/>
<stop offset="1" stop-color="#F7DD43" stop-opacity="0"/>
</linearGradient>
<linearGradient id="paint29_linear_122_130" x1="51.5" y1="287" x2="51.5" y2="598.381" gradientUnits="userSpaceOnUse">
<stop stop-color="#F7DD43"/>
<stop offset="1" stop-color="#F7DD43" stop-opacity="0"/>
</linearGradient>
<linearGradient id="paint30_linear_122_130" x1="51.5" y1="287" x2="51.5" y2="598.381" gradientUnits="userSpaceOnUse">
<stop stop-color="#F7DD43"/>
<stop offset="1" stop-color="#F7DD43" stop-opacity="0"/>
</linearGradient>
<linearGradient id="paint31_linear_122_130" x1="51.5" y1="287" x2="51.5" y2="598.381" gradientUnits="userSpaceOnUse">
<stop stop-color="#F7DD43"/>
<stop offset="1" stop-color="#F7DD43" stop-opacity="0"/>
</linearGradient>
<linearGradient id="paint32_linear_122_130" x1="51.5" y1="287" x2="51.5" y2="598.381" gradientUnits="userSpaceOnUse">
<stop stop-color="#F7DD43"/>
<stop offset="1" stop-color="#F7DD43" stop-opacity="0"/>
</linearGradient>
<linearGradient id="paint33_linear_122_130" x1="51.5" y1="287" x2="51.5" y2="598.381" gradientUnits="userSpaceOnUse">
<stop stop-color="#F7DD43"/>
<stop offset="1" stop-color="#F7DD43" stop-opacity="0"/>
</linearGradient>
<linearGradient id="paint34_linear_122_130" x1="51.5" y1="287" x2="51.5" y2="598.381" gradientUnits="userSpaceOnUse">
<stop stop-color="#F7DD43"/>
<stop offset="1" stop-color="#F7DD43" stop-opacity="0"/>
</linearGradient>
<linearGradient id="paint35_linear_122_130" x1="51.5" y1="287" x2="51.5" y2="598.381" gradientUnits="userSpaceOnUse">
<stop stop-color="#F7DD43"/>
<stop offset="1" stop-color="#F7DD43" stop-opacity="0"/>
</linearGradient>
<linearGradient id="paint36_linear_122_130" x1="51.5" y1="287" x2="51.5" y2="598.381" gradientUnits="userSpaceOnUse">
<stop stop-color="#F7DD43"/>
<stop offset="1" stop-color="#F7DD43" stop-opacity="0"/>
</linearGradient>
<linearGradient id="paint37_linear_122_130" x1="51.5" y1="287" x2="51.5" y2="598.381" gradientUnits="userSpaceOnUse">
<stop stop-color="#F7DD43"/>
<stop offset="1" stop-color="#F7DD43" stop-opacity="0"/>
</linearGradient>
<linearGradient id="paint38_linear_122_130" x1="51.5" y1="287" x2="51.5" y2="598.381" gradientUnits="userSpaceOnUse">
<stop stop-color="#F7DD43"/>
<stop offset="1" stop-color="#F7DD43" stop-opacity="0"/>
</linearGradient>
<linearGradient id="paint39_linear_122_130" x1="51.5" y1="287" x2="51.5" y2="598.381" gradientUnits="userSpaceOnUse">
<stop stop-color="#F7DD43"/>
<stop offset="1" stop-color="#F7DD43" stop-opacity="0"/>
</linearGradient>
<linearGradient id="paint40_linear_122_130" x1="51.5" y1="287" x2="51.5" y2="598.381" gradientUnits="userSpaceOnUse">
<stop stop-color="#F7DD43"/>
<stop offset="1" stop-color="#F7DD43" stop-opacity="0"/>
</linearGradient>
<linearGradient id="paint41_linear_122_130" x1="51.5" y1="287" x2="51.5" y2="598.381" gradientUnits="userSpaceOnUse">
<stop stop-color="#F7DD43"/>
<stop offset="1" stop-color="#F7DD43" stop-opacity="0"/>
</linearGradient>
<linearGradient id="paint42_linear_122_130" x1="51.5" y1="287" x2="51.5" y2="598.381" gradientUnits="userSpaceOnUse">
<stop stop-color="#F7DD43"/>
<stop offset="1" stop-color="#F7DD43" stop-opacity="0"/>
</linearGradient>
<linearGradient id="paint43_linear_122_130" x1="51.5" y1="287" x2="51.5" y2="598.381" gradientUnits="userSpaceOnUse">
<stop stop-color="#F7DD43"/>
<stop offset="1" stop-color="#F7DD43" stop-opacity="0"/>
</linearGradient>
<linearGradient id="paint44_linear_122_130" x1="51.5" y1="287" x2="51.5" y2="598.381" gradientUnits="userSpaceOnUse">
<stop stop-color="#F7DD43"/>
<stop offset="1" stop-color="#F7DD43" stop-opacity="0"/>
</linearGradient>
<linearGradient id="paint45_linear_122_130" x1="51.5" y1="287" x2="51.5" y2="598.381" gradientUnits="userSpaceOnUse">
<stop stop-color="#F7DD43"/>
<stop offset="1" stop-color="#F7DD43" stop-opacity="0"/>
</linearGradient>
<linearGradient id="paint46_linear_122_130" x1="51.5" y1="287" x2="51.5" y2="598.381" gradientUnits="userSpaceOnUse">
<stop stop-color="#F7DD43"/>
<stop offset="1" stop-color="#F7DD43" stop-opacity="0"/>
</linearGradient>
<linearGradient id="paint47_linear_122_130" x1="937.5" y1="-13" x2="937.5" y2="285.818" gradientUnits="userSpaceOnUse">
<stop stop-color="#F7DD43"/>
<stop offset="1" stop-color="#F7DD43" stop-opacity="0"/>
</linearGradient>
<linearGradient id="paint48_linear_122_130" x1="937.5" y1="-13" x2="937.5" y2="285.818" gradientUnits="userSpaceOnUse">
<stop stop-color="#F7DD43"/>
<stop offset="1" stop-color="#F7DD43" stop-opacity="0"/>
</linearGradient>
<linearGradient id="paint49_linear_122_130" x1="937.5" y1="-13" x2="937.5" y2="285.818" gradientUnits="userSpaceOnUse">
<stop stop-color="#F7DD43"/>
<stop offset="1" stop-color="#F7DD43" stop-opacity="0"/>
</linearGradient>
<linearGradient id="paint50_linear_122_130" x1="937.5" y1="-13" x2="937.5" y2="285.818" gradientUnits="userSpaceOnUse">
<stop stop-color="#F7DD43"/>
<stop offset="1" stop-color="#F7DD43" stop-opacity="0"/>
</linearGradient>
<linearGradient id="paint51_linear_122_130" x1="937.5" y1="-13" x2="937.5" y2="285.818" gradientUnits="userSpaceOnUse">
<stop stop-color="#F7DD43"/>
<stop offset="1" stop-color="#F7DD43" stop-opacity="0"/>
</linearGradient>
<linearGradient id="paint52_linear_122_130" x1="937.5" y1="-13" x2="937.5" y2="285.818" gradientUnits="userSpaceOnUse">
<stop stop-color="#F7DD43"/>
<stop offset="1" stop-color="#F7DD43" stop-opacity="0"/>
</linearGradient>
<linearGradient id="paint53_linear_122_130" x1="937.5" y1="-13" x2="937.5" y2="285.818" gradientUnits="userSpaceOnUse">
<stop stop-color="#F7DD43"/>
<stop offset="1" stop-color="#F7DD43" stop-opacity="0"/>
</linearGradient>
<linearGradient id="paint54_linear_122_130" x1="937.5" y1="-13" x2="937.5" y2="285.818" gradientUnits="userSpaceOnUse">
<stop stop-color="#F7DD43"/>
<stop offset="1" stop-color="#F7DD43" stop-opacity="0"/>
</linearGradient>
<linearGradient id="paint55_linear_122_130" x1="937.5" y1="-13" x2="937.5" y2="285.818" gradientUnits="userSpaceOnUse">
<stop stop-color="#F7DD43"/>
<stop offset="1" stop-color="#F7DD43" stop-opacity="0"/>
</linearGradient>
<linearGradient id="paint56_linear_122_130" x1="937.5" y1="-13" x2="937.5" y2="285.818" gradientUnits="userSpaceOnUse">
<stop stop-color="#F7DD43"/>
<stop offset="1" stop-color="#F7DD43" stop-opacity="0"/>
</linearGradient>
<linearGradient id="paint57_linear_122_130" x1="937.5" y1="-13" x2="937.5" y2="285.818" gradientUnits="userSpaceOnUse">
<stop stop-color="#F7DD43"/>
<stop offset="1" stop-color="#F7DD43" stop-opacity="0"/>
</linearGradient>
<linearGradient id="paint58_linear_122_130" x1="937.5" y1="-13" x2="937.5" y2="285.818" gradientUnits="userSpaceOnUse">
<stop stop-color="#F7DD43"/>
<stop offset="1" stop-color="#F7DD43" stop-opacity="0"/>
</linearGradient>
<linearGradient id="paint59_linear_122_130" x1="937.5" y1="-13" x2="937.5" y2="285.818" gradientUnits="userSpaceOnUse">
<stop stop-color="#F7DD43"/>
<stop offset="1" stop-color="#F7DD43" stop-opacity="0"/>
</linearGradient>
<linearGradient id="paint60_linear_122_130" x1="937.5" y1="-13" x2="937.5" y2="285.818" gradientUnits="userSpaceOnUse">
<stop stop-color="#F7DD43"/>
<stop offset="1" stop-color="#F7DD43" stop-opacity="0"/>
</linearGradient>
<linearGradient id="paint61_linear_122_130" x1="937.5" y1="-13" x2="937.5" y2="285.818" gradientUnits="userSpaceOnUse">
<stop stop-color="#F7DD43"/>
<stop offset="1" stop-color="#F7DD43" stop-opacity="0"/>
</linearGradient>
<linearGradient id="paint62_linear_122_130" x1="937.5" y1="-13" x2="937.5" y2="285.818" gradientUnits="userSpaceOnUse">
<stop stop-color="#F7DD43"/>
<stop offset="1" stop-color="#F7DD43" stop-opacity="0"/>
</linearGradient>
<linearGradient id="paint63_linear_122_130" x1="937.5" y1="-13" x2="937.5" y2="285.818" gradientUnits="userSpaceOnUse">
<stop stop-color="#F7DD43"/>
<stop offset="1" stop-color="#F7DD43" stop-opacity="0"/>
</linearGradient>
<linearGradient id="paint64_linear_122_130" x1="937.5" y1="-13" x2="937.5" y2="285.818" gradientUnits="userSpaceOnUse">
<stop stop-color="#F7DD43"/>
<stop offset="1" stop-color="#F7DD43" stop-opacity="0"/>
</linearGradient>
<linearGradient id="paint65_linear_122_130" x1="937.5" y1="-13" x2="937.5" y2="285.818" gradientUnits="userSpaceOnUse">
<stop stop-color="#F7DD43"/>
<stop offset="1" stop-color="#F7DD43" stop-opacity="0"/>
</linearGradient>
<linearGradient id="paint66_linear_122_130" x1="937.5" y1="-13" x2="937.5" y2="285.818" gradientUnits="userSpaceOnUse">
<stop stop-color="#F7DD43"/>
<stop offset="1" stop-color="#F7DD43" stop-opacity="0"/>
</linearGradient>
<linearGradient id="paint67_linear_122_130" x1="937.5" y1="-13" x2="937.5" y2="285.818" gradientUnits="userSpaceOnUse">
<stop stop-color="#F7DD43"/>
<stop offset="1" stop-color="#F7DD43" stop-opacity="0"/>
</linearGradient>
<linearGradient id="paint68_linear_122_130" x1="937.5" y1="-13" x2="937.5" y2="285.818" gradientUnits="userSpaceOnUse">
<stop stop-color="#F7DD43"/>
<stop offset="1" stop-color="#F7DD43" stop-opacity="0"/>
</linearGradient>
<linearGradient id="paint69_linear_122_130" x1="937.5" y1="-13" x2="937.5" y2="285.818" gradientUnits="userSpaceOnUse">
<stop stop-color="#F7DD43"/>
<stop offset="1" stop-color="#F7DD43" stop-opacity="0"/>
</linearGradient>
<linearGradient id="paint70_linear_122_130" x1="937.5" y1="-13" x2="937.5" y2="285.818" gradientUnits="userSpaceOnUse">
<stop stop-color="#F7DD43"/>
<stop offset="1" stop-color="#F7DD43" stop-opacity="0"/>
</linearGradient>
<linearGradient id="paint71_linear_122_130" x1="937.5" y1="-13" x2="937.5" y2="285.818" gradientUnits="userSpaceOnUse">
<stop stop-color="#F7DD43"/>
<stop offset="1" stop-color="#F7DD43" stop-opacity="0"/>
</linearGradient>
<linearGradient id="paint72_linear_122_130" x1="937.5" y1="-13" x2="937.5" y2="285.818" gradientUnits="userSpaceOnUse">
<stop stop-color="#F7DD43"/>
<stop offset="1" stop-color="#F7DD43" stop-opacity="0"/>
</linearGradient>
<linearGradient id="paint73_linear_122_130" x1="937.5" y1="-13" x2="937.5" y2="285.818" gradientUnits="userSpaceOnUse">
<stop stop-color="#F7DD43"/>
<stop offset="1" stop-color="#F7DD43" stop-opacity="0"/>
</linearGradient>
<linearGradient id="paint74_linear_122_130" x1="937.5" y1="-13" x2="937.5" y2="285.818" gradientUnits="userSpaceOnUse">
<stop stop-color="#F7DD43"/>
<stop offset="1" stop-color="#F7DD43" stop-opacity="0"/>
</linearGradient>
<linearGradient id="paint75_linear_122_130" x1="937.5" y1="-13" x2="937.5" y2="285.818" gradientUnits="userSpaceOnUse">
<stop stop-color="#F7DD43"/>
<stop offset="1" stop-color="#F7DD43" stop-opacity="0"/>
</linearGradient>
<linearGradient id="paint76_linear_122_130" x1="937.5" y1="-13" x2="937.5" y2="285.818" gradientUnits="userSpaceOnUse">
<stop stop-color="#F7DD43"/>
<stop offset="1" stop-color="#F7DD43" stop-opacity="0"/>
</linearGradient>
<linearGradient id="paint77_linear_122_130" x1="937.5" y1="-13" x2="937.5" y2="285.818" gradientUnits="userSpaceOnUse">
<stop stop-color="#F7DD43"/>
<stop offset="1" stop-color="#F7DD43" stop-opacity="0"/>
</linearGradient>
<linearGradient id="paint78_linear_122_130" x1="937.5" y1="-13" x2="937.5" y2="285.818" gradientUnits="userSpaceOnUse">
<stop stop-color="#F7DD43"/>
<stop offset="1" stop-color="#F7DD43" stop-opacity="0"/>
</linearGradient>
<linearGradient id="paint79_linear_122_130" x1="937.5" y1="-13" x2="937.5" y2="285.818" gradientUnits="userSpaceOnUse">
<stop stop-color="#F7DD43"/>
<stop offset="1" stop-color="#F7DD43" stop-opacity="0"/>
</linearGradient>
<linearGradient id="paint80_linear_122_130" x1="937.5" y1="-13" x2="937.5" y2="285.818" gradientUnits="userSpaceOnUse">
<stop stop-color="#F7DD43"/>
<stop offset="1" stop-color="#F7DD43" stop-opacity="0"/>
</linearGradient>
<linearGradient id="paint81_linear_122_130" x1="937.5" y1="-13" x2="937.5" y2="285.818" gradientUnits="userSpaceOnUse">
<stop stop-color="#F7DD43"/>
<stop offset="1" stop-color="#F7DD43" stop-opacity="0"/>
</linearGradient>
<linearGradient id="paint82_linear_122_130" x1="937.5" y1="-13" x2="937.5" y2="285.818" gradientUnits="userSpaceOnUse">
<stop stop-color="#F7DD43"/>
<stop offset="1" stop-color="#F7DD43" stop-opacity="0"/>
</linearGradient>
<linearGradient id="paint83_linear_122_130" x1="937.5" y1="-13" x2="937.5" y2="285.818" gradientUnits="userSpaceOnUse">
<stop stop-color="#F7DD43"/>
<stop offset="1" stop-color="#F7DD43" stop-opacity="0"/>
</linearGradient>
<linearGradient id="paint84_linear_122_130" x1="937.5" y1="-13" x2="937.5" y2="285.818" gradientUnits="userSpaceOnUse">
<stop stop-color="#F7DD43"/>
<stop offset="1" stop-color="#F7DD43" stop-opacity="0"/>
</linearGradient>
<linearGradient id="paint85_linear_122_130" x1="937.5" y1="-13" x2="937.5" y2="285.818" gradientUnits="userSpaceOnUse">
<stop stop-color="#F7DD43"/>
<stop offset="1" stop-color="#F7DD43" stop-opacity="0"/>
</linearGradient>
<linearGradient id="paint86_linear_122_130" x1="937.5" y1="-13" x2="937.5" y2="285.818" gradientUnits="userSpaceOnUse">
<stop stop-color="#F7DD43"/>
<stop offset="1" stop-color="#F7DD43" stop-opacity="0"/>
</linearGradient>
<linearGradient id="paint87_linear_122_130" x1="937.5" y1="-13" x2="937.5" y2="285.818" gradientUnits="userSpaceOnUse">
<stop stop-color="#F7DD43"/>
<stop offset="1" stop-color="#F7DD43" stop-opacity="0"/>
</linearGradient>
<linearGradient id="paint88_linear_122_130" x1="937.5" y1="-13" x2="937.5" y2="285.818" gradientUnits="userSpaceOnUse">
<stop stop-color="#F7DD43"/>
<stop offset="1" stop-color="#F7DD43" stop-opacity="0"/>
</linearGradient>
<linearGradient id="paint89_linear_122_130" x1="937.5" y1="-13" x2="937.5" y2="285.818" gradientUnits="userSpaceOnUse">
<stop stop-color="#F7DD43"/>
<stop offset="1" stop-color="#F7DD43" stop-opacity="0"/>
</linearGradient>
<linearGradient id="paint90_linear_122_130" x1="937.5" y1="-13" x2="937.5" y2="285.818" gradientUnits="userSpaceOnUse">
<stop stop-color="#F7DD43"/>
<stop offset="1" stop-color="#F7DD43" stop-opacity="0"/>
</linearGradient>
<linearGradient id="paint91_linear_122_130" x1="937.5" y1="-13" x2="937.5" y2="285.818" gradientUnits="userSpaceOnUse">
<stop stop-color="#F7DD43"/>
<stop offset="1" stop-color="#F7DD43" stop-opacity="0"/>
</linearGradient>
<linearGradient id="paint92_linear_122_130" x1="937.5" y1="-13" x2="937.5" y2="285.818" gradientUnits="userSpaceOnUse">
<stop stop-color="#F7DD43"/>
<stop offset="1" stop-color="#F7DD43" stop-opacity="0"/>
</linearGradient>
<linearGradient id="paint93_linear_122_130" x1="937.5" y1="-13" x2="937.5" y2="285.818" gradientUnits="userSpaceOnUse">
<stop stop-color="#F7DD43"/>
<stop offset="1" stop-color="#F7DD43" stop-opacity="0"/>
</linearGradient>
<clipPath id="clip0_122_130">
<rect width="1024" height="753" fill="white"/>
</clipPath>
</defs>
</svg>
